<?xml version="1.0" encoding="iso-8859-1"?>
<!-- Generator: Adobe Illustrator 19.0.0, SVG Export Plug-In . SVG Version: 6.00 Build 0)  -->
<svg version="1.1" id="Layer_1" xmlns="http://www.w3.org/2000/svg" xmlns:xlink="http://www.w3.org/1999/xlink" x="0px" y="0px"
	 viewBox="0 0 512 512" style="enable-background:new 0 0 512 512;" xml:space="preserve">
<path style="fill:#3A5D74;" d="M259.412,0.8c-1.955-1.067-4.32-1.067-6.275,0c-61.071,33.289-99.008,97.134-99.008,166.619v128.137
	l0.14,14.309v52.981c0,6.628,5.393,12.021,12.021,12.021h179.017c6.628,0,12.021-5.393,12.021-12.021v-62.042
	c0.7-1.056,1.092-2.31,1.092-3.623V167.418C358.42,97.934,320.482,34.089,259.412,0.8z"/>
<path style="opacity:0.1;fill:#231F20;enable-background:new    ;" d="M171.755,362.513v-54.452l-0.14-14.706V161.664
	c0-65.174,31.61-125.505,83.552-161.557c-0.7,0.12-1.388,0.344-2.028,0.693c-61.071,33.289-99.008,97.134-99.008,166.619v128.137
	l0.14,14.309v52.981c0,6.628,5.393,12.021,12.021,12.021h17.485C177.146,374.866,171.755,369.324,171.755,362.513z"/>
<g>
	<path style="fill:#578CAD;" d="M389.79,80.553c-18.532,0-33.555,15.025-33.555,33.555V312.71
		c23.673,16.126,52.974,37.803,67.112,54.965V255.22v-30.598V114.108C423.347,95.578,408.32,80.553,389.79,80.553z"/>
	<path style="fill:#578CAD;" d="M156.316,311.052V114.108c0-18.53-15.027-33.555-33.556-33.555
		c-18.53,0-33.555,15.025-33.555,33.555v251.623C103.652,348.541,132.851,327.012,156.316,311.052z"/>
</g>
<g>
	<path style="opacity:0.1;fill:#231F20;enable-background:new    ;" d="M373.72,116.846c0-16.463,10.966-30.359,25.99-34.8
		c-3.135-0.969-6.466-1.493-9.919-1.493c-18.532,0-33.555,15.025-33.555,33.555V312.71c5.605,3.817,11.526,7.949,17.485,12.256
		V116.846z"/>
	<path style="opacity:0.1;fill:#231F20;enable-background:new    ;" d="M106.689,114.108c0-15.506,10.522-28.549,24.813-32.398
		c-2.789-0.751-5.716-1.158-8.742-1.158c-18.53,0-33.555,15.025-33.555,33.555V365.73c4.569-5.436,10.614-11.305,17.485-17.294
		V114.108z"/>
</g>
<g>
	<path style="fill:#3A5D74;" d="M153.037,512H85.926c-4.527,0-8.196-3.669-8.196-8.196s3.669-8.196,8.196-8.196h67.112
		c4.526,0,8.196,3.668,8.196,8.196C161.233,508.33,157.562,512,153.037,512z"/>
	<path style="fill:#3A5D74;" d="M426.625,512h-67.112c-4.527,0-8.196-3.669-8.196-8.196s3.668-8.196,8.196-8.196h67.112
		c4.526,0,8.196,3.668,8.196,8.196C434.821,508.33,431.151,512,426.625,512z"/>
</g>
<g>
	<path style="fill:#72B5DB;" d="M435.039,431.773c0,0,0-18.927,0-46.268c0-27.342-110.91-94.639-110.91-94.639v164.041
		c0,3.89-1.178,7.504-3.191,10.512v0.003c0,0,39.44,0,77.294,0C436.089,465.422,435.039,431.773,435.039,431.773z"/>
	<path style="fill:#72B5DB;" d="M76.961,430.491c0,0,0-18.927,0-46.267c0-27.342,110.91-94.639,110.91-94.639v164.04
		c0,3.89,1.176,7.504,3.189,10.51v0.002c0,0-39.44,0-77.294,0C75.91,464.139,76.961,430.491,76.961,430.491z"/>
</g>
<path style="opacity:0.1;fill:#231F20;enable-background:new    ;" d="M94.446,437.048c0,0,0-18.927,0-46.267
	c0-20.472,62.181-63.346,93.425-83.595v-17.599c0,0-110.91,67.297-110.91,94.639c0,27.339,0,46.267,0,46.267
	s-0.922,29.537,30.1,33.262C93.938,453.903,94.446,437.048,94.446,437.048z"/>
<path style="fill:#90C8EC;" d="M306.451,161.03c-14.134-19.126-31.953-29.659-50.177-29.659c-18.223,0-36.044,10.533-50.177,29.659
	c-12.78,17.295-20.41,39.08-20.41,58.279v233.413c0,11.944,9.717,21.66,21.659,21.66h97.854c11.943,0,21.659-9.717,21.659-21.66
	V219.309C326.861,200.112,319.232,178.325,306.451,161.03z"/>
<circle style="fill:#3A5D74;" cx="256.271" cy="305.064" r="32.335"/>
<g>
	<path style="opacity:0.1;fill:#231F20;enable-background:new    ;" d="M241.424,305.063c0-14.827,9.984-27.314,23.592-31.129
		c-2.782-0.78-5.712-1.206-8.742-1.206c-17.858,0-32.335,14.477-32.335,32.336s14.476,32.335,32.335,32.335
		c3.03,0,5.96-0.426,8.742-1.206C251.408,332.377,241.424,319.889,241.424,305.063z"/>
	<path style="opacity:0.1;fill:#231F20;enable-background:new    ;" d="M203.173,452.722V219.309
		c0-19.198,7.629-40.984,20.41-58.279c11.861-16.051,26.321-26.02,41.434-28.821c-2.895-0.537-5.811-0.838-8.742-0.838
		c-18.223,0-36.044,10.533-50.177,29.659c-12.78,17.295-20.41,39.08-20.41,58.279v233.413c0,11.944,9.717,21.66,21.659,21.66h17.485
		C212.889,474.382,203.173,464.665,203.173,452.722z"/>
</g>
<path style="fill:#CAE9F7;" d="M185.689,421.784v33.124c0,11.944,9.717,21.66,21.659,21.66h97.854
	c11.943,0,21.659-9.717,21.659-21.66v-33.124L185.689,421.784L185.689,421.784z"/>
<path style="opacity:0.1;fill:#231F20;enable-background:new    ;" d="M203.372,454.907v-33.124h-17.685v33.124
	c0,11.944,9.717,21.66,21.659,21.66h17.685C213.089,476.567,203.372,466.85,203.372,454.907z"/>
<path style="fill:#3A5D74;" d="M256.274,500.168c-4.527,0-8.196-3.668-8.196-8.196v-96.216c0-4.527,3.669-8.196,8.196-8.196
	s8.196,3.668,8.196,8.196v96.216C264.47,496.5,260.802,500.168,256.274,500.168z"/>
<g>
</g>
<g>
</g>
<g>
</g>
<g>
</g>
<g>
</g>
<g>
</g>
<g>
</g>
<g>
</g>
<g>
</g>
<g>
</g>
<g>
</g>
<g>
</g>
<g>
</g>
<g>
</g>
<g>
</g>
</svg>
